<?xml version="1.0" encoding="UTF-8"?>
<svg xmlns="http://www.w3.org/2000/svg" width="44" height="44" viewBox="0 0 44 44" fill="none">
  <rect width="44" height="44" rx="22" fill="#1877F2"></rect>
  <g clip-path="url(#clip0_76_366)">
    <path d="M34 22C34 15.3726 28.6274 10 22 10C15.3726 10 10 15.3726 10 22C10 27.9895 14.3882 32.954 20.125 33.8542V25.4688H17.0781V22H20.125V19.3563C20.125 16.3488 21.9166 14.6875 24.6576 14.6875C25.9701 14.6875 27.3438 14.9219 27.3438 14.9219V17.875H25.8306C24.34 17.875 23.875 18.8001 23.875 19.75V22H27.2031L26.6711 25.4688H23.875V33.8542C29.6118 32.954 34 27.9895 34 22Z" fill="white"></path>
  </g>
  <defs>
    <clipPath id="clip0_76_366">
      <rect width="24" height="24" fill="white" transform="translate(10 10)"></rect>
    </clipPath>
  </defs>
</svg>
