<svg width="44" height="44" viewBox="0 0 44 44" fill="none" xmlns="http://www.w3.org/2000/svg">
<rect width="43.9662" height="43.9703" rx="21.9831" fill="#AC0000"/>
<path fill-rule="evenodd" clip-rule="evenodd" d="M26.6877 31.9674C25.2477 31.9144 21.1667 31.3504 16.8927 27.0774C12.6197 22.8034 12.0567 18.7234 12.0027 17.2824C11.9227 15.0864 13.6047 12.9534 15.5477 12.1204C15.7817 12.0194 16.0379 11.9809 16.2913 12.0088C16.5446 12.0367 16.7863 12.13 16.9927 12.2794C18.5927 13.4454 19.6967 15.2094 20.6447 16.5964C20.8533 16.9012 20.9425 17.272 20.8953 17.6382C20.8481 18.0045 20.6678 18.3406 20.3887 18.5824L18.4377 20.0314C18.3435 20.0995 18.2771 20.1995 18.251 20.3128C18.2249 20.4261 18.2408 20.545 18.2957 20.6474C18.7377 21.4504 19.5237 22.6464 20.4237 23.5464C21.3237 24.4464 22.5767 25.2844 23.4357 25.7764C23.5434 25.8369 23.6702 25.8538 23.79 25.8237C23.9098 25.7935 24.0135 25.7187 24.0797 25.6144L25.3497 23.6814C25.5832 23.3713 25.9277 23.1635 26.3109 23.1016C26.6942 23.0397 27.0865 23.1285 27.4057 23.3494C28.8127 24.3234 30.4547 25.4084 31.6567 26.9474C31.8184 27.1553 31.9212 27.4029 31.9544 27.6641C31.9877 27.9253 31.9501 28.1907 31.8457 28.4324C31.0087 30.3854 28.8907 32.0484 26.6877 31.9674Z" fill="white"/>
</svg>
