<?xml version="1.0" encoding="UTF-8"?>
<svg xmlns="http://www.w3.org/2000/svg" width="44" height="44" viewBox="0 0 44 44" fill="none">
  <rect width="44" height="44" rx="22" fill="#7C9E3D"></rect>
  <path d="M33.5591 28.7998L28.0827 23.8205C27.8238 23.5853 27.4836 23.4598 27.134 23.4706C26.7843 23.4814 26.4526 23.6276 26.2087 23.8785L22.9848 27.1939C22.2088 27.0457 20.6488 26.5594 19.0429 24.9576C17.437 23.3504 16.9507 21.7863 16.8065 21.0157L20.1193 17.7905C20.3704 17.5468 20.5169 17.215 20.5277 16.8652C20.5385 16.5155 20.4128 16.1752 20.1772 15.9165L15.1993 10.4415C14.9636 10.1819 14.636 10.0245 14.2861 10.0026C13.9362 9.98074 13.5915 10.0961 13.3253 10.3243L10.4018 12.8314C10.1689 13.0652 10.0299 13.3763 10.0112 13.7057C9.99095 14.0425 9.60565 22.0207 15.7921 28.2097C21.189 33.6053 27.9493 34 29.8112 34C30.0833 34 30.2503 33.9919 30.2948 33.9892C30.6242 33.9708 30.9352 33.8311 31.1678 33.5972L33.6736 30.6724C33.9027 30.4071 34.0189 30.0627 33.9975 29.7128C33.9761 29.3629 33.8188 29.0353 33.5591 28.7998Z" fill="white"></path>
</svg>
