<?xml version="1.0" encoding="UTF-8"?>
<svg xmlns="http://www.w3.org/2000/svg" width="44" height="44" viewBox="0 0 44 44" fill="none">
  <rect width="44" height="44" rx="22" fill="#0068FE"></rect>
  <g clip-path="url(#clip0_76_347)">
    <path d="M14.4534 10.1243C15.2772 9.99236 16.1166 9.99236 16.9482 10.0156L16.8782 10.0777C15.7902 10.7916 14.8886 11.7693 14.2358 12.8866C12.9301 15.1291 12.4482 17.7829 12.557 20.359C12.6658 22.4541 13.171 24.5569 14.2358 26.3803C14.4145 26.7062 14.7098 26.9933 14.7176 27.3891C14.7487 28.2348 14.329 29.0341 13.7617 29.6471C13.8005 29.6859 13.8316 29.7247 13.8705 29.7635C14.399 30.3454 14.9741 30.8886 15.5104 31.4628C16.2798 32.3318 17.158 33.1 17.9119 33.9846C16.6606 34.0001 15.3938 34.0622 14.1503 33.8294C12.5959 33.5268 11.2124 32.4482 10.5518 31.005C10.1554 30.1747 10.0311 29.2358 10 28.328C10 24.1146 10 19.8934 10 15.68C10.0155 14.2678 10.3886 12.7935 11.3834 11.746C12.1684 10.8614 13.2876 10.2872 14.4534 10.1243Z" fill="white"></path>
    <path d="M25.8703 17.8604C26.2045 17.8604 26.5387 17.8604 26.8729 17.8604C26.8651 19.808 26.8651 21.7634 26.8729 23.711C26.5465 23.6644 26.0024 23.8739 25.8781 23.4394C25.8548 21.5849 25.8703 19.7226 25.8703 17.8604Z" fill="white"></path>
    <path d="M15.6657 17.9302C17.2201 17.9302 18.7668 17.9147 20.3134 17.9302C20.3056 18.2329 20.2823 18.5665 20.0802 18.8071C19.0232 20.1262 17.9818 21.4608 16.9248 22.7799C18.0517 22.7877 19.1787 22.7799 20.3056 22.7799C20.2823 23.0437 20.3756 23.3463 20.2046 23.5791C20.0958 23.7266 19.9015 23.711 19.746 23.7188C18.3393 23.711 16.9248 23.7266 15.5181 23.711C15.5258 23.4162 15.5258 23.0825 15.7357 22.8497C16.7849 21.5384 17.8419 20.2348 18.8834 18.9157C17.8108 18.9157 16.7383 18.9079 15.6657 18.9234C15.6657 18.5898 15.6657 18.2639 15.6657 17.9302Z" fill="white"></path>
    <path d="M29.3523 19.2259C30.4715 18.9776 31.6761 19.7069 31.987 20.8088C32.3678 21.9494 31.6684 23.3073 30.5181 23.6565C29.5388 23.9979 28.3653 23.5479 27.8523 22.6478C27.4559 21.9805 27.4326 21.1036 27.7901 20.4208C28.0932 19.8078 28.6839 19.3655 29.3523 19.2259ZM29.329 20.2113C28.645 20.4519 28.2798 21.2821 28.544 21.9494C28.7616 22.5779 29.5077 22.9659 30.145 22.7719C30.8834 22.5935 31.3264 21.7399 31.0621 21.0338C30.8523 20.3355 30.0129 19.932 29.329 20.2113Z" fill="white"></path>
    <path d="M21.0831 20.0328C21.6194 19.3654 22.5598 19.0395 23.3914 19.2801C23.6634 19.3499 23.9121 19.4896 24.153 19.6293C24.153 19.5594 24.1453 19.412 24.1453 19.3344C24.4562 19.3344 24.7748 19.3344 25.0857 19.3344C25.0857 20.7932 25.0857 22.252 25.0857 23.7107C24.8525 23.703 24.6194 23.734 24.394 23.6875C24.2385 23.6254 24.1841 23.4469 24.122 23.3072C23.2593 23.9746 21.8992 23.8271 21.1841 23.0124C20.4147 22.2209 20.3758 20.8785 21.0831 20.0328ZM22.3499 20.2345C21.6271 20.4906 21.2774 21.4139 21.6427 22.0813C21.9536 22.733 22.8318 23.0046 23.4536 22.6477C24.0365 22.3451 24.3007 21.5846 24.052 20.9872C23.8111 20.3199 22.995 19.9552 22.3499 20.2345Z" fill="white"></path>
    <path d="M33.9301 27.8081L33.9923 27.7383C34.0234 28.9488 33.8913 30.2135 33.2928 31.2999C32.6011 32.5647 31.3421 33.5036 29.9276 33.8062C29.1348 33.9691 28.3188 34.0079 27.5105 34.0002C25.0234 34.0002 22.5364 34.0002 20.0493 34.0002C19.3343 33.9924 18.6193 34.0234 17.9042 33.9846C17.1504 33.1001 16.2721 32.3319 15.5027 31.4628C14.9586 30.8886 14.3913 30.3455 13.8628 29.7635C14.912 29.8489 15.9612 29.6393 16.9172 29.2203C18.7903 30.4386 21.0131 31.0128 23.2125 31.199C25.4198 31.3697 27.6659 31.1369 29.7643 30.4231C31.3343 29.8799 32.8265 29.0419 33.9301 27.8081Z" fill="white"></path>
  </g>
  <defs>
    <clipPath id="clip0_76_347">
      <rect width="24" height="24" fill="white" transform="translate(10 10)"></rect>
    </clipPath>
  </defs>
</svg>
