<?xml version="1.0" encoding="UTF-8"?>
<svg xmlns="http://www.w3.org/2000/svg" width="44" height="44" viewBox="0 0 44 44" fill="none">
  <rect width="44" height="44" rx="22" fill="#CAB238"></rect>
  <g clip-path="url(#clip0_76_360)">
    <path d="M34 16.75V28.1399C34.0001 29.0607 33.6492 29.9468 33.0193 30.6167C32.3893 31.2867 31.5279 31.69 30.6112 31.744L30.4 31.75H13.6C12.6817 31.7501 11.7982 31.3982 11.1301 30.7665C10.462 30.1348 10.0599 29.2709 10.006 28.3517L10 28.1399V16.75L21.334 24.3276L21.4732 24.407C21.6372 24.4874 21.8174 24.5292 22 24.5292C22.1826 24.5292 22.3628 24.4874 22.5268 24.407L22.666 24.3276L34 16.75Z" fill="white"></path>
    <path d="M30.2418 13C31.5133 13 32.6283 13.7128 33.25 14.7844L22 22.75L10.75 14.7844C11.0452 14.2752 11.4508 13.8483 11.9329 13.5394C12.4151 13.2305 12.9598 13.0486 13.5216 13.0088L13.7582 13H30.2418Z" fill="white"></path>
  </g>
  <defs>
    <clipPath id="clip0_76_360">
      <rect width="24" height="24" fill="white" transform="translate(10 10)"></rect>
    </clipPath>
  </defs>
</svg>
