<svg width="32" height="32" viewBox="0 0 32 32" fill="none" xmlns="http://www.w3.org/2000/svg">
<path d="M25.6 18.2476C27.2898 19.5101 28.8 22.6889 28.8 24.6475C28.8 25.2577 28.3548 25.7524 27.8057 25.7524H27.2M20.8 13.0726C21.8931 12.4403 22.6286 11.2584 22.6286 9.90476C22.6286 8.5511 21.8931 7.36922 20.8 6.73688M4.19437 25.7524H21.7104C22.2596 25.7524 22.7048 25.2577 22.7048 24.6475C22.7048 20.8121 19.5004 17.7028 12.9524 17.7028C6.40437 17.7028 3.20001 20.8121 3.20001 24.6475C3.20001 25.2577 3.6452 25.7524 4.19437 25.7524ZM16.6095 9.90476C16.6095 11.9245 14.9722 13.5619 12.9524 13.5619C10.9326 13.5619 9.29525 11.9245 9.29525 9.90476C9.29525 7.88498 10.9326 6.24762 12.9524 6.24762C14.9722 6.24762 16.6095 7.88498 16.6095 9.90476Z" stroke="#C19D68" stroke-width="2" stroke-linecap="round"/>
</svg>
