<svg width="24" height="24" viewBox="0 0 24 24" fill="none" xmlns="http://www.w3.org/2000/svg">
<path d="M1 18V12C1 11.6022 1.11706 11.2206 1.32544 10.9393C1.53381 10.658 1.81643 10.5 2.11111 10.5M2.11111 10.5H9.88889M2.11111 10.5V7.5C2.11111 7.10218 2.22817 6.72064 2.43655 6.43934C2.64492 6.15804 2.92754 6 3.22222 6H8.77778C9.07246 6 9.35508 6.15804 9.56345 6.43934C9.77183 6.72064 9.88889 7.10218 9.88889 7.5V10.5M9.88889 10.5C10.1836 10.5 10.4662 10.658 10.6746 10.9393C10.8829 11.2206 11 11.6022 11 12V18M1 16.5H11" stroke="#C19D68" stroke-width="1.5" stroke-linecap="round" stroke-linejoin="round"/>
<path d="M13 18V12C13 11.6022 13.1171 11.2206 13.3254 10.9393C13.5338 10.658 13.8164 10.5 14.1111 10.5M14.1111 10.5H21.8889M14.1111 10.5V7.5C14.1111 7.10218 14.2282 6.72064 14.4365 6.43934C14.6449 6.15804 14.9275 6 15.2222 6H20.7778C21.0725 6 21.3551 6.15804 21.5635 6.43934C21.7718 6.72064 21.8889 7.10218 21.8889 7.5V10.5M21.8889 10.5C22.1836 10.5 22.4662 10.658 22.6746 10.9393C22.8829 11.2206 23 11.6022 23 12V18M13 16.5H23" stroke="#C19D68" stroke-width="1.5" stroke-linecap="round" stroke-linejoin="round"/>
</svg>
