<svg width="21" height="20" viewBox="0 0 21 20" fill="none" xmlns="http://www.w3.org/2000/svg">
<path d="M3.99992 9.16666C4.44195 9.16666 4.86587 9.34225 5.17843 9.65481C5.49099 9.96737 5.66659 10.3913 5.66659 10.8333V11.6667H15.6666V10.8333C15.6666 10.3913 15.8422 9.96737 16.1547 9.65481C16.4673 9.34225 16.8912 9.16666 17.3333 9.16666C17.7753 9.16666 18.1992 9.34225 18.5118 9.65481C18.8243 9.96737 18.9999 10.3913 18.9999 10.8333V15C18.9999 15.221 18.9121 15.433 18.7558 15.5892C18.5996 15.7455 18.3876 15.8333 18.1666 15.8333H3.16659C2.94557 15.8333 2.73361 15.7455 2.57733 15.5892C2.42105 15.433 2.33325 15.221 2.33325 15V10.8333C2.33325 10.3913 2.50885 9.96737 2.82141 9.65481C3.13397 9.34225 3.55789 9.16666 3.99992 9.16666Z" stroke="#002D4A" stroke-width="1.5" stroke-linecap="round" stroke-linejoin="round"/>
<path d="M4 9.16666V6.66666C4 6.00362 4.26339 5.36773 4.73223 4.89889C5.20107 4.43005 5.83696 4.16666 6.5 4.16666H14.8333C15.4964 4.16666 16.1323 4.43005 16.6011 4.89889C17.0699 5.36773 17.3333 6.00362 17.3333 6.66666V9.16666M10.6667 4.16666V11.6667" stroke="#002D4A" stroke-width="1.5" stroke-linecap="round" stroke-linejoin="round"/>
</svg>
