<svg width="18" height="18" viewBox="0 0 18 18" fill="none" xmlns="http://www.w3.org/2000/svg">
<path d="M9.65331 4.7445C10.5532 4.89532 11.3707 5.32036 12.0233 5.97163C12.6759 6.62291 13.0984 7.43871 13.253 8.33679M9.79072 1.80005C11.3913 2.07084 12.8511 2.82838 14.0121 3.98353C15.173 5.14211 15.9287 6.59891 16.2 8.19624M14.9497 14.5513C14.9497 14.5513 14.0807 15.4048 13.8678 15.655C13.5209 16.0252 13.1121 16.2 12.5763 16.2C12.5248 16.2 12.4698 16.2 12.4183 16.1966C11.3982 16.1315 10.4502 15.7339 9.73917 15.3945C7.79509 14.4553 6.088 13.1219 4.66944 11.432C3.49819 10.0232 2.71506 8.72068 2.19641 7.32216C1.87697 6.46865 1.76019 5.80366 1.81171 5.17639C1.84606 4.77534 2.00062 4.44285 2.28571 4.15834L3.45697 2.98948C3.62527 2.8318 3.80388 2.74611 3.97905 2.74611C4.19544 2.74611 4.37062 2.87636 4.48053 2.98605C4.48396 2.98948 4.4874 2.99291 4.49083 2.99633C4.70036 3.19172 4.89957 3.39395 5.10909 3.6099C5.21557 3.71959 5.32548 3.82928 5.4354 3.94239L6.37309 4.87817C6.73718 5.24151 6.73718 5.57743 6.37309 5.94078C6.27348 6.04018 6.17731 6.13958 6.0777 6.23556C5.78918 6.53035 6.01583 6.30416 5.717 6.57153C5.71013 6.57838 5.70326 6.58181 5.69983 6.58866C5.40444 6.88345 5.45939 7.17138 5.52122 7.36676C5.52466 7.37705 5.52809 7.38733 5.53152 7.39761C5.77539 7.98719 6.11887 8.54248 6.64096 9.20404L6.64439 9.20747C7.59239 10.3729 8.59191 11.2813 9.69447 11.9771C9.8353 12.0662 9.97955 12.1382 10.1169 12.2068C10.2406 12.2685 10.3574 12.3267 10.457 12.3884C10.4707 12.3953 10.4845 12.4056 10.4982 12.4124C10.615 12.4707 10.7249 12.4981 10.8382 12.4981C11.1233 12.4981 11.3019 12.3199 11.3603 12.2616L12.0336 11.5897C12.1504 11.4732 12.3359 11.3326 12.5522 11.3326C12.7652 11.3326 12.9404 11.4663 13.0469 11.5829C13.0503 11.5863 13.0503 11.5863 13.0537 11.5897L14.9463 13.4784C15.3001 13.828 14.9497 14.5513 14.9497 14.5513Z" stroke="white" stroke-width="1.5" stroke-linecap="round" stroke-linejoin="round"/>
</svg>
