<svg width="21" height="20" viewBox="0 0 21 20" fill="none" xmlns="http://www.w3.org/2000/svg">
<path d="M16.4998 2.5H4.83317C3.9127 2.5 3.1665 3.24619 3.1665 4.16667V15.8333C3.1665 16.7538 3.9127 17.5 4.83317 17.5H16.4998C17.4203 17.5 18.1665 16.7538 18.1665 15.8333V4.16667C18.1665 3.24619 17.4203 2.5 16.4998 2.5Z" stroke="#002D4A" stroke-width="1.5" stroke-linecap="round" stroke-linejoin="round"/>
<path d="M8.1665 14.1667V5.83334H11.4998C12.1629 5.83334 12.7988 6.09674 13.2676 6.56558C13.7364 7.03442 13.9998 7.6703 13.9998 8.33334C13.9998 8.99638 13.7364 9.63227 13.2676 10.1011C12.7988 10.57 12.1629 10.8333 11.4998 10.8333H8.1665" stroke="#002D4A" stroke-width="1.5" stroke-linecap="round" stroke-linejoin="round"/>
</svg>
