<svg width="21" height="20" viewBox="0 0 21 20" fill="none" xmlns="http://www.w3.org/2000/svg">
<path d="M4.5 8.33333H16.1667M7.83333 10.8333V13.3333M7.83333 5V5.83333M4.5 4.16667C4.5 3.72464 4.67559 3.30072 4.98816 2.98816C5.30072 2.67559 5.72464 2.5 6.16667 2.5H14.5C14.942 2.5 15.366 2.67559 15.6785 2.98816C15.9911 3.30072 16.1667 3.72464 16.1667 4.16667V15.8333C16.1667 16.2754 15.9911 16.6993 15.6785 17.0118C15.366 17.3244 14.942 17.5 14.5 17.5H6.16667C5.72464 17.5 5.30072 17.3244 4.98816 17.0118C4.67559 16.6993 4.5 16.2754 4.5 15.8333V4.16667Z" stroke="#002D4A" stroke-width="1.5" stroke-linecap="round" stroke-linejoin="round"/>
</svg>
