<svg width="21" height="19" viewBox="0 0 21 19" fill="none" xmlns="http://www.w3.org/2000/svg">
<path d="M18.0898 1.5H2.577C2.20298 1.5 1.84428 1.62542 1.5798 1.84868C1.31533 2.07194 1.16675 2.37474 1.16675 2.69048V8.64286C1.16675 8.95859 1.31533 9.26139 1.5798 9.48465C1.84428 9.70791 2.20298 9.83333 2.577 9.83333H18.0898C18.4638 9.83333 18.8226 9.70791 19.087 9.48465C19.3515 9.26139 19.5001 8.95859 19.5001 8.64286V2.69048C19.5001 2.37474 19.3515 2.07194 19.087 1.84868C18.8226 1.62542 18.4638 1.5 18.0898 1.5Z" stroke="#353535" stroke-width="1.5" stroke-linecap="round" stroke-linejoin="round"/>
<path d="M16.0476 9.71427V6.85713C16.0476 6.47825 15.8971 6.11489 15.6292 5.84698C15.3613 5.57907 14.998 5.42856 14.6191 5.42856H6.04764C5.66876 5.42856 5.3054 5.57907 5.03749 5.84698C4.76958 6.11489 4.61907 6.47825 4.61907 6.85713V9.71427M3.90479 16.8571H4.04764C4.57808 16.8571 5.08678 16.6464 5.46186 16.2713C5.83693 15.8963 6.04764 15.3876 6.04764 14.8571V13.2857M16.7619 16.8571H16.6191C16.0886 16.8571 15.5799 16.6464 15.2049 16.2713C14.8298 15.8963 14.6191 15.3876 14.6191 14.8571V13.2857M10.3334 18.2857V13.2857" stroke="#353535" stroke-width="1.5" stroke-linecap="round" stroke-linejoin="round"/>
</svg>
