<svg width="24" height="24" viewBox="0 0 24 24" fill="none" xmlns="http://www.w3.org/2000/svg">
<path d="M1 22V16.5C1 16.1353 1.11706 15.7856 1.32544 15.5277C1.53381 15.2699 1.81643 15.125 2.11111 15.125M2.11111 15.125H9.88889M2.11111 15.125V12.375C2.11111 12.0103 2.22817 11.6606 2.43655 11.4027C2.64492 11.1449 2.92754 11 3.22222 11H8.77778C9.07246 11 9.35508 11.1449 9.56345 11.4027C9.77183 11.6606 9.88889 12.0103 9.88889 12.375V15.125M9.88889 15.125C10.1836 15.125 10.4662 15.2699 10.6746 15.5277C10.8829 15.7856 11 16.1353 11 16.5V22M1 20.625H11" stroke="#C19D68" stroke-width="1.5" stroke-linecap="round" stroke-linejoin="round"/>
<path d="M13 22V16.5C13 16.1353 13.1171 15.7856 13.3254 15.5277C13.5338 15.2699 13.8164 15.125 14.1111 15.125M14.1111 15.125H21.8889M14.1111 15.125V12.375C14.1111 12.0103 14.2282 11.6606 14.4365 11.4027C14.6449 11.1449 14.9275 11 15.2222 11H20.7778C21.0725 11 21.3551 11.1449 21.5635 11.4027C21.7718 11.6606 21.8889 12.0103 21.8889 12.375V15.125M21.8889 15.125C22.1836 15.125 22.4662 15.2699 22.6746 15.5277C22.8829 15.7856 23 16.1353 23 16.5V22M13 20.625H23" stroke="#C19D68" stroke-width="1.5" stroke-linecap="round" stroke-linejoin="round"/>
<path d="M7 11L7 8.5C7 8.13533 7.11706 7.78559 7.32544 7.52773C7.53381 7.26987 7.81643 7.125 8.11111 7.125M8.11111 7.125H15.8889M8.11111 7.125V4.375C8.11111 4.01033 8.22817 3.66059 8.43655 3.40273C8.64492 3.14487 8.92754 3 9.22222 3H14.7778C15.0725 3 15.3551 3.14487 15.5635 3.40273C15.7718 3.66059 15.8889 4.01033 15.8889 4.375V7.125M15.8889 7.125C16.1836 7.125 16.4662 7.26987 16.6746 7.52773C16.8829 7.78559 17 8.13533 17 8.5V11" stroke="#C19D68" stroke-width="1.5" stroke-linecap="round" stroke-linejoin="round"/>
</svg>
