<svg width="20" height="20" viewBox="0 0 20 20" fill="none" xmlns="http://www.w3.org/2000/svg">
<path fill-rule="evenodd" clip-rule="evenodd" d="M10 16.5C10.23 16.5 10.843 16.274 11.487 14.986C11.793 14.374 12.05 13.616 12.229 12.75H7.771C7.95 13.616 8.207 14.374 8.513 14.986C9.157 16.274 9.77 16.5 10 16.5ZM7.554 11.25C7.48152 10.4182 7.48152 9.58176 7.554 8.75H12.446C12.518 9.58178 12.518 10.4182 12.446 11.25H7.554ZM13.757 12.75C13.533 13.974 13.164 15.058 12.691 15.918C14.0995 15.2748 15.2337 14.152 15.891 12.75H13.757ZM16.38 11.25H13.95C14.0152 10.4179 14.0152 9.58206 13.95 8.75H16.379C16.5408 9.57548 16.5408 10.4245 16.379 11.25H16.38ZM6.049 11.25H3.62C3.45823 10.4245 3.45823 9.57548 3.62 8.75H6.05C5.9848 9.58206 5.9848 10.4179 6.05 11.25H6.049ZM4.109 12.75H6.243C6.467 13.974 6.836 15.058 7.309 15.918C5.90046 15.2748 4.76632 14.152 4.109 12.75ZM7.771 7.25H12.229C12.05 6.384 11.793 5.626 11.487 5.014C10.843 3.726 10.23 3.5 10 3.5C9.77 3.5 9.157 3.726 8.513 5.014C8.207 5.626 7.95 6.384 7.771 7.25ZM13.757 7.25H15.891C15.2337 5.848 14.0995 4.72519 12.691 4.082C13.164 4.942 13.533 6.026 13.757 7.25ZM7.31 4.082C6.837 4.942 6.468 6.026 6.244 7.25H4.109C4.76632 5.848 5.90146 4.72519 7.31 4.082ZM10 2C12.1217 2 14.1566 2.84285 15.6569 4.34315C17.1571 5.84344 18 7.87827 18 10C18 12.1217 17.1571 14.1566 15.6569 15.6569C14.1566 17.1571 12.1217 18 10 18C7.87827 18 5.84344 17.1571 4.34315 15.6569C2.84285 14.1566 2 12.1217 2 10C2 7.87827 2.84285 5.84344 4.34315 4.34315C5.84344 2.84285 7.87827 2 10 2Z" fill="white"/>
</svg>
