<svg width="25" height="24" viewBox="0 0 25 24" fill="none" xmlns="http://www.w3.org/2000/svg">
<path d="M3.5 20V12C3.5 11.4696 3.71071 10.9609 4.08579 10.5858C4.46086 10.2107 4.96957 10 5.5 10M5.5 10H19.5M5.5 10V6C5.5 5.46957 5.71071 4.96086 6.08579 4.58579C6.46086 4.21071 6.96957 4 7.5 4H17.5C18.0304 4 18.5391 4.21071 18.9142 4.58579C19.2893 4.96086 19.5 5.46957 19.5 6V10M19.5 10C20.0304 10 20.5391 10.2107 20.9142 10.5858C21.2893 10.9609 21.5 11.4696 21.5 12V20M3.5 18H21.5" stroke="#C19D68" stroke-width="1.5" stroke-linecap="round" stroke-linejoin="round"/>
</svg>
