<svg width="24" height="24" viewBox="0 0 24 24" fill="none" xmlns="http://www.w3.org/2000/svg">
<path d="M2 22V13C2 12.4033 2.21071 11.831 2.58579 11.409C2.96086 10.9871 3.46957 10.75 4 10.75M4 10.75H20M4 10.75V6.25C4 5.65326 4.21071 5.08097 4.58579 4.65901C4.96086 4.23705 5.46957 4 6 4H18C18.5304 4 19.0391 4.23705 19.4142 4.65901C19.7893 5.08097 20 5.65326 20 6.25V10.75M20 10.75C20.5304 10.75 21.0391 10.9871 21.4142 11.409C21.7893 11.831 22 12.4033 22 13V22M12 4V10.75M2 19.75H22" stroke="#C19D68" stroke-width="1.5" stroke-linecap="round" stroke-linejoin="round"/>
<path d="M9.27778 17.5L8.5 13.375L10.6389 15.25L12 13L13.3611 15.25L15.5 13.375L14.7222 17.5H9.27778Z" fill="#C19D68"/>
</svg>
