<svg width="104" height="24" viewBox="0 0 104 24" fill="none" xmlns="http://www.w3.org/2000/svg">
<path d="M11.0489 2.92705C11.3483 2.00574 12.6517 2.00574 12.9511 2.92705L14.4697 7.60081C14.6035 8.01284 14.9875 8.2918 15.4207 8.2918H20.335C21.3037 8.2918 21.7065 9.53141 20.9228 10.1008L16.947 12.9894C16.5966 13.244 16.4499 13.6954 16.5838 14.1074L18.1024 18.7812C18.4017 19.7025 17.3472 20.4686 16.5635 19.8992L12.5878 17.0106C12.2373 16.756 11.7627 16.756 11.4122 17.0106L7.43648 19.8992C6.65276 20.4686 5.59828 19.7025 5.89763 18.7812L7.41623 14.1074C7.55011 13.6954 7.40345 13.244 7.05296 12.9894L3.07722 10.1008C2.29351 9.53141 2.69628 8.2918 3.66501 8.2918H8.57929C9.01252 8.2918 9.39647 8.01284 9.53035 7.60081L11.0489 2.92705Z" fill="#C19D68"/>
<path d="M51.0489 2.92705C51.3483 2.00574 52.6517 2.00574 52.9511 2.92705L54.4697 7.60081C54.6035 8.01284 54.9875 8.2918 55.4207 8.2918H60.335C61.3037 8.2918 61.7065 9.53141 60.9228 10.1008L56.947 12.9894C56.5966 13.244 56.4499 13.6954 56.5838 14.1074L58.1024 18.7812C58.4017 19.7025 57.3472 20.4686 56.5635 19.8992L52.5878 17.0106C52.2373 16.756 51.7627 16.756 51.4122 17.0106L47.4365 19.8992C46.6528 20.4686 45.5983 19.7025 45.8976 18.7812L47.4162 14.1074C47.5501 13.6954 47.4034 13.244 47.053 12.9894L43.0772 10.1008C42.2935 9.53141 42.6963 8.2918 43.665 8.2918H48.5793C49.0125 8.2918 49.3965 8.01284 49.5303 7.60081L51.0489 2.92705Z" fill="#C19D68"/>
<path d="M91.0489 2.92705C91.3483 2.00574 92.6517 2.00574 92.9511 2.92705L94.4697 7.60081C94.6035 8.01284 94.9875 8.2918 95.4207 8.2918H100.335C101.304 8.2918 101.706 9.53141 100.923 10.1008L96.947 12.9894C96.5966 13.244 96.4499 13.6954 96.5838 14.1074L98.1024 18.7812C98.4017 19.7025 97.3472 20.4686 96.5635 19.8992L92.5878 17.0106C92.2373 16.756 91.7627 16.756 91.4122 17.0106L87.4365 19.8992C86.6528 20.4686 85.5983 19.7025 85.8976 18.7812L87.4162 14.1074C87.5501 13.6954 87.4034 13.244 87.053 12.9894L83.0772 10.1008C82.2935 9.53141 82.6963 8.2918 83.665 8.2918H88.5793C89.0125 8.2918 89.3965 8.01284 89.5303 7.60081L91.0489 2.92705Z" fill="#C19D68"/>
</svg>
