<svg width="21" height="20" viewBox="0 0 21 20" fill="none" xmlns="http://www.w3.org/2000/svg">
<path d="M14.0812 1.66666C11.5671 1.66666 9.49207 3.57433 9.20608 6.01461L3.54114 14.0282L3.21159 14.511L3.6072 14.9283L4.17776 15.4996L2.33325 17.3215L3.3444 18.3333L5.14464 16.5107L6.11011 17.4761L6.61533 17.1248L14.6743 11.4594C17.1055 11.1664 18.9999 9.09358 18.9999 6.58515C18.9999 3.87647 16.79 1.66666 14.0812 1.66666ZM14.0812 3.07194C16.0297 3.07194 17.5946 4.63672 17.5946 6.58515C17.5969 7.2712 17.3983 7.94292 17.0233 8.51742L12.1489 3.64249C12.7235 3.26774 13.3952 3.0694 14.0812 3.07194ZM11.1384 4.65289L16.0136 9.52782C15.439 9.90256 14.7672 10.1009 14.0812 10.0984C12.1327 10.0984 10.5679 8.53358 10.5679 6.58515C10.5655 5.8991 10.7634 5.22738 11.1384 4.65289ZM9.42602 8.12253C9.66835 8.84484 10.0736 9.50171 10.6105 10.0423C11.1473 10.5829 11.8014 10.9928 12.522 11.2402L6.28578 15.6534L5.03432 14.3585L9.42602 8.12253Z" fill="#002D4A"/>
</svg>
