<svg width="48" height="48" viewBox="0 0 48 48" fill="none" xmlns="http://www.w3.org/2000/svg">
<g clip-path="url(#clip0_137_6465)">
<path d="M20.2826 33.1272L11.3057 24.1482L14.2973 21.1566L20.2826 27.1398L32.249 15.1713L35.2427 18.165L20.2826 33.1272Z" stroke="white" stroke-width="1.5"/>
<path fill-rule="evenodd" clip-rule="evenodd" d="M0.727539 24C0.727539 11.1471 11.1474 0.727295 24.0003 0.727295C36.8532 0.727295 47.273 11.1471 47.273 24C47.273 36.8529 36.8532 47.2728 24.0003 47.2728C11.1474 47.2728 0.727539 36.8529 0.727539 24ZM24.0003 43.0413C21.4997 43.0413 19.0237 42.5488 16.7135 41.5919C14.4033 40.635 12.3042 39.2324 10.536 37.4643C8.76787 35.6961 7.36529 33.597 6.40838 31.2868C5.45146 28.9766 4.95894 26.5006 4.95894 24C4.95894 21.4995 5.45146 19.0234 6.40838 16.7132C7.36529 14.403 8.76787 12.3039 10.536 10.5358C12.3042 8.76762 14.4033 7.36505 16.7135 6.40813C19.0237 5.45122 21.4997 4.9587 24.0003 4.9587C29.0503 4.9587 33.8936 6.96483 37.4645 10.5358C41.0355 14.1067 43.0416 18.95 43.0416 24C43.0416 29.0501 41.0355 33.8933 37.4645 37.4643C33.8936 41.0352 29.0503 43.0413 24.0003 43.0413Z" stroke="white" stroke-width="1.5"/>
</g>
<defs>
<clipPath id="clip0_137_6465">
<rect width="48" height="48" fill="white"/>
</clipPath>
</defs>
</svg>
