<svg width="25" height="24" viewBox="0 0 25 24" fill="none" xmlns="http://www.w3.org/2000/svg">
<g clip-path="url(#clip0_124_1976)">
<path d="M1.5 22V16.5C1.5 16.1353 1.61706 15.7856 1.82544 15.5277C2.03381 15.2699 2.31643 15.125 2.61111 15.125M2.61111 15.125H10.3889M2.61111 15.125V12.375C2.61111 12.0103 2.72817 11.6606 2.93655 11.4027C3.14492 11.1449 3.42754 11 3.72222 11H9.27778C9.57246 11 9.85508 11.1449 10.0635 11.4027C10.2718 11.6606 10.3889 12.0103 10.3889 12.375V15.125M10.3889 15.125C10.6836 15.125 10.9662 15.2699 11.1746 15.5277C11.3829 15.7856 11.5 16.1353 11.5 16.5V22M1.5 20.625H11.5" stroke="#353535" stroke-width="1.5" stroke-linecap="round" stroke-linejoin="round"/>
<path d="M13.5 22V16.5C13.5 16.1353 13.6171 15.7856 13.8254 15.5277C14.0338 15.2699 14.3164 15.125 14.6111 15.125M14.6111 15.125H22.3889M14.6111 15.125V12.375C14.6111 12.0103 14.7282 11.6606 14.9365 11.4027C15.1449 11.1449 15.4275 11 15.7222 11H21.2778C21.5725 11 21.8551 11.1449 22.0635 11.4027C22.2718 11.6606 22.3889 12.0103 22.3889 12.375V15.125M22.3889 15.125C22.6836 15.125 22.9662 15.2699 23.1746 15.5277C23.3829 15.7856 23.5 16.1353 23.5 16.5V22M13.5 20.625H23.5" stroke="#353535" stroke-width="1.5" stroke-linecap="round" stroke-linejoin="round"/>
<path d="M7.5 11L7.5 8.5C7.5 8.13533 7.61706 7.78559 7.82544 7.52773C8.03381 7.26987 8.31643 7.125 8.61111 7.125M8.61111 7.125H16.3889M8.61111 7.125V4.375C8.61111 4.01033 8.72817 3.66059 8.93655 3.40273C9.14492 3.14487 9.42754 3 9.72222 3H15.2778C15.5725 3 15.8551 3.14487 16.0635 3.40273C16.2718 3.66059 16.3889 4.01033 16.3889 4.375V7.125M16.3889 7.125C16.6836 7.125 16.9662 7.26987 17.1746 7.52773C17.3829 7.78559 17.5 8.13533 17.5 8.5V11" stroke="#353535" stroke-width="1.5" stroke-linecap="round" stroke-linejoin="round"/>
</g>
<defs>
<clipPath id="clip0_124_1976">
<rect width="24" height="24" fill="white" transform="translate(0.5)"/>
</clipPath>
</defs>
</svg>
