<svg width="25" height="24" viewBox="0 0 25 24" fill="none" xmlns="http://www.w3.org/2000/svg">
<path d="M2.5 22V13C2.5 12.4033 2.71071 11.831 3.08579 11.409C3.46086 10.9871 3.96957 10.75 4.5 10.75M4.5 10.75H20.5M4.5 10.75V6.25C4.5 5.65326 4.71071 5.08097 5.08579 4.65901C5.46086 4.23705 5.96957 4 6.5 4H18.5C19.0304 4 19.5391 4.23705 19.9142 4.65901C20.2893 5.08097 20.5 5.65326 20.5 6.25V10.75M20.5 10.75C21.0304 10.75 21.5391 10.9871 21.9142 11.409C22.2893 11.831 22.5 12.4033 22.5 13V22M12.5 4V10.75M2.5 19.75H22.5" stroke="#353535" stroke-width="1.5" stroke-linecap="round" stroke-linejoin="round"/>
<path d="M9.77778 17.5L9 13.375L11.1389 15.25L12.5 13L13.8611 15.25L16 13.375L15.2222 17.5H9.77778Z" fill="#353535"/>
</svg>
