<svg width="20" height="20" viewBox="0 0 20 20" fill="none" xmlns="http://www.w3.org/2000/svg">
<path d="M2.5 16.6667V10C2.5 9.55798 2.67559 9.13406 2.98816 8.8215C3.30072 8.50894 3.72464 8.33334 4.16667 8.33334M4.16667 8.33334H15.8333M4.16667 8.33334V5.00001C4.16667 4.55798 4.34226 4.13406 4.65482 3.8215C4.96738 3.50894 5.39131 3.33334 5.83333 3.33334H14.1667C14.6087 3.33334 15.0326 3.50894 15.3452 3.8215C15.6577 4.13406 15.8333 4.55798 15.8333 5.00001V8.33334M15.8333 8.33334C16.2754 8.33334 16.6993 8.50894 17.0118 8.8215C17.3244 9.13406 17.5 9.55798 17.5 10V16.6667M2.5 15H17.5" stroke="#555555" stroke-width="1.5" stroke-linecap="round" stroke-linejoin="round"/>
</svg>
