<svg width="20" height="20" viewBox="0 0 20 20" fill="none" xmlns="http://www.w3.org/2000/svg">
<path d="M10 4.72417C9.33786 4.72417 8.69059 4.92438 8.14005 5.2995C7.5895 5.67462 7.1604 6.20778 6.90701 6.83158C6.65362 7.45537 6.58732 8.14178 6.7165 8.80399C6.84568 9.46621 7.16453 10.0745 7.63273 10.5519C8.10093 11.0294 8.69746 11.3545 9.34687 11.4862C9.99629 11.6179 10.6694 11.5503 11.2812 11.2919C11.8929 11.0336 12.4158 10.596 12.7836 10.0346C13.1515 9.4732 13.3478 8.81318 13.3478 8.13799C13.3468 7.2329 12.9938 6.36518 12.3662 5.72519C11.7385 5.08519 10.8876 4.72519 10 4.72417ZM10 9.68972C9.69903 9.68972 9.40482 9.59872 9.15457 9.42821C8.90432 9.2577 8.70927 9.01536 8.5941 8.73181C8.47892 8.44827 8.44878 8.13627 8.5075 7.83526C8.56622 7.53425 8.71115 7.25776 8.92397 7.04074C9.13679 6.82373 9.40793 6.67594 9.70312 6.61607C9.99831 6.55619 10.3043 6.58692 10.5823 6.70437C10.8604 6.82182 11.0981 7.02071 11.2653 7.27589C11.4325 7.53107 11.5217 7.83108 11.5217 8.13799C11.5217 8.54953 11.3614 8.94422 11.076 9.23523C10.7907 9.52624 10.4036 9.68972 10 9.68972ZM10 1C8.1441 1.00205 6.36479 1.75475 5.05248 3.09294C3.74016 4.43112 3.00201 6.24551 3 8.13799C3 14.1401 9.21174 18.6432 9.47652 18.8318C9.62997 18.9413 9.81272 19 10 19C10.1873 19 10.37 18.9413 10.5235 18.8318C11.7 17.9476 12.7764 16.9328 13.7328 15.8059C15.8701 13.3029 17 10.6495 17 8.13799C16.998 6.24551 16.2598 4.43112 14.9475 3.09294C13.6352 1.75475 11.8559 1.00205 10 1ZM12.3815 14.5552C11.656 15.4049 10.8592 16.1884 10 16.8968C9.14082 16.1884 8.34396 15.4049 7.61848 14.5552C6.34783 13.0547 4.82609 10.7224 4.82609 8.13799C4.82609 6.73873 5.37119 5.39678 6.34149 4.40736C7.31179 3.41794 8.62779 2.86208 10 2.86208C11.3722 2.86208 12.6882 3.41794 13.6585 4.40736C14.6288 5.39678 15.1739 6.73873 15.1739 8.13799C15.1739 10.7224 13.6522 13.0547 12.3815 14.5552Z" fill="#353535"/>
</svg>
