<svg width="24" height="24" viewBox="0 0 24 24" fill="none" xmlns="http://www.w3.org/2000/svg">
<path d="M2.25 17.25H21.75C21.9489 17.25 22.1397 17.171 22.2803 17.0303C22.421 16.8897 22.5 16.6989 22.5 16.5C22.5 16.3011 22.421 16.1103 22.2803 15.9697C22.1397 15.829 21.9489 15.75 21.75 15.75H21V14.25C20.9973 11.9937 20.1482 9.82058 18.6207 8.16006C17.0931 6.49954 14.9982 5.47248 12.75 5.28188V3.75H14.25C14.4489 3.75 14.6397 3.67098 14.7803 3.53033C14.921 3.38968 15 3.19891 15 3C15 2.80109 14.921 2.61032 14.7803 2.46967C14.6397 2.32902 14.4489 2.25 14.25 2.25H9.75C9.55109 2.25 9.36032 2.32902 9.21967 2.46967C9.07902 2.61032 9 2.80109 9 3C9 3.19891 9.07902 3.38968 9.21967 3.53033C9.36032 3.67098 9.55109 3.75 9.75 3.75H11.25V5.28188C9.0018 5.47248 6.90689 6.49954 5.37934 8.16006C3.85178 9.82058 3.00273 11.9937 3 14.25V15.75H2.25C2.05109 15.75 1.86032 15.829 1.71967 15.9697C1.57902 16.1103 1.5 16.3011 1.5 16.5C1.5 16.6989 1.57902 16.8897 1.71967 17.0303C1.86032 17.171 2.05109 17.25 2.25 17.25ZM4.5 14.25C4.5 12.2609 5.29018 10.3532 6.6967 8.9467C8.10322 7.54018 10.0109 6.75 12 6.75C13.9891 6.75 15.8968 7.54018 17.3033 8.9467C18.7098 10.3532 19.5 12.2609 19.5 14.25V15.75H4.5V14.25ZM22.5 19.5C22.5 19.6989 22.421 19.8897 22.2803 20.0303C22.1397 20.171 21.9489 20.25 21.75 20.25H2.25C2.05109 20.25 1.86032 20.171 1.71967 20.0303C1.57902 19.8897 1.5 19.6989 1.5 19.5C1.5 19.3011 1.57902 19.1103 1.71967 18.9697C1.86032 18.829 2.05109 18.75 2.25 18.75H21.75C21.9489 18.75 22.1397 18.829 22.2803 18.9697C22.421 19.1103 22.5 19.3011 22.5 19.5Z" fill="white"/>
</svg>
