<svg width="25" height="24" viewBox="0 0 25 24" fill="none" xmlns="http://www.w3.org/2000/svg">
<g clip-path="url(#clip0_124_1972)">
<path d="M1.5 18V12C1.5 11.6022 1.61706 11.2206 1.82544 10.9393C2.03381 10.658 2.31643 10.5 2.61111 10.5M2.61111 10.5H10.3889M2.61111 10.5V7.5C2.61111 7.10218 2.72817 6.72064 2.93655 6.43934C3.14492 6.15804 3.42754 6 3.72222 6H9.27778C9.57246 6 9.85508 6.15804 10.0635 6.43934C10.2718 6.72064 10.3889 7.10218 10.3889 7.5V10.5M10.3889 10.5C10.6836 10.5 10.9662 10.658 11.1746 10.9393C11.3829 11.2206 11.5 11.6022 11.5 12V18M1.5 16.5H11.5" stroke="#353535" stroke-width="1.5" stroke-linecap="round" stroke-linejoin="round"/>
<path d="M13.5 18V12C13.5 11.6022 13.6171 11.2206 13.8254 10.9393C14.0338 10.658 14.3164 10.5 14.6111 10.5M14.6111 10.5H22.3889M14.6111 10.5V7.5C14.6111 7.10218 14.7282 6.72064 14.9365 6.43934C15.1449 6.15804 15.4275 6 15.7222 6H21.2778C21.5725 6 21.8551 6.15804 22.0635 6.43934C22.2718 6.72064 22.3889 7.10218 22.3889 7.5V10.5M22.3889 10.5C22.6836 10.5 22.9662 10.658 23.1746 10.9393C23.3829 11.2206 23.5 11.6022 23.5 12V18M13.5 16.5H23.5" stroke="#353535" stroke-width="1.5" stroke-linecap="round" stroke-linejoin="round"/>
</g>
<defs>
<clipPath id="clip0_124_1972">
<rect width="24" height="24" fill="white" transform="translate(0.5)"/>
</clipPath>
</defs>
</svg>
