<svg width="25" height="24" viewBox="0 0 25 24" fill="none" xmlns="http://www.w3.org/2000/svg">
<path d="M15.7 11.9992C15.7 12.2202 15.6157 12.4323 15.4657 12.5886C15.3157 12.7449 15.1122 12.8328 14.9 12.8328C14.6878 12.8328 14.4843 12.7449 14.3343 12.5886C14.1843 12.4323 14.1 12.2202 14.1 11.9992C14.1 11.7781 14.1843 11.5661 14.3343 11.4097C14.4843 11.2534 14.6878 11.1656 14.9 11.1656C15.1122 11.1656 15.3157 11.2534 15.4657 11.4097C15.6157 11.5661 15.7 11.7781 15.7 11.9992ZM11.8568 2.01617C11.7408 1.99201 11.6211 1.99496 11.5063 2.02481C11.3915 2.05466 11.2845 2.11068 11.193 2.18881C11.1014 2.26694 11.0277 2.36526 10.977 2.47666C10.9264 2.58807 10.9001 2.7098 10.9 2.83308V21.1669C10.9001 21.2902 10.9264 21.4119 10.977 21.5233C11.0277 21.6347 11.1014 21.7331 11.193 21.8112C11.2845 21.8893 11.3915 21.9453 11.5063 21.9752C11.6211 22.005 11.7408 22.008 11.8568 21.9838L19.8568 20.3167C20.0381 20.2789 20.2012 20.1769 20.3185 20.028C20.4358 19.879 20.4999 19.6924 20.5 19.4998V4.50025C20.4999 4.30761 20.4358 4.12096 20.3185 3.97204C20.2012 3.82311 20.0381 3.72109 19.8568 3.68334L11.8568 2.01617ZM12.5 20.1499V3.85005L18.9 5.18379V18.8162L12.5 20.1499ZM9.3 20.3333V18.6662H6.1V5.33383H9.3V3.66666H5.3C5.08783 3.66666 4.88434 3.75449 4.73431 3.91082C4.58429 4.06714 4.5 4.27917 4.5 4.50025V19.4998C4.5 19.7208 4.58429 19.9329 4.73431 20.0892C4.88434 20.2455 5.08783 20.3333 5.3 20.3333H9.3Z" fill="white"/>
</svg>
