<svg width="18" height="18" viewBox="0 0 18 18" fill="none" xmlns="http://www.w3.org/2000/svg">
<path d="M2.42186 4.25L13.8223 15.3799M2.42186 4.25C2.84603 3.76575 3.47956 3.45833 4.18737 3.45833H8.04133M2.42186 4.25C2.08071 4.63947 1.875 5.14333 1.875 5.69363V13.8897C1.875 15.1242 2.91028 16.125 4.18737 16.125H12.6661C13.9432 16.125 14.9784 15.1242 14.9784 13.8897V10.5368M8.04133 10.5368L3.03119 15.3799M13.5043 4.40833V4.36071M16.125 4.35326C16.125 6.00543 13.5043 8.20833 13.5043 8.20833C13.5043 8.20833 10.8836 6.00543 10.8836 4.35326C10.8836 2.98455 12.0569 1.875 13.5043 1.875C14.9517 1.875 16.125 2.98455 16.125 4.35326Z" stroke="white" stroke-width="1.5" stroke-linecap="round" stroke-linejoin="round"/>
</svg>
