<svg width="20" height="20" viewBox="0 0 20 20" fill="none" xmlns="http://www.w3.org/2000/svg">
<path d="M17.5 13.6833V16.63C17.5001 16.841 17.4202 17.0441 17.2763 17.1985C17.1325 17.3528 16.9355 17.4469 16.725 17.4617C16.3611 17.4872 16.0639 17.5 15.8333 17.5C8.46917 17.5 2.5 11.5308 2.5 4.16667C2.5 3.93667 2.51278 3.63944 2.53833 3.275C2.5531 3.06454 2.64715 2.86751 2.8015 2.72367C2.95585 2.57984 3.15902 2.4999 3.37 2.5H6.31667C6.42003 2.4999 6.51975 2.53822 6.59644 2.60752C6.67313 2.67682 6.72133 2.77215 6.73167 2.875C6.75056 3.06611 6.76833 3.21944 6.785 3.335C6.9506 4.49077 7.28999 5.61487 7.79167 6.66917C7.87083 6.83583 7.81917 7.035 7.66917 7.14167L5.87083 8.42667C6.97059 10.9886 9.01227 13.0302 11.5742 14.13L12.8575 12.335C12.9097 12.2614 12.9863 12.2086 13.0736 12.1859C13.161 12.1632 13.2535 12.172 13.335 12.2108C14.3892 12.7116 15.513 13.0501 16.6683 13.215C16.7839 13.2317 16.9367 13.2494 17.1267 13.2683C17.2294 13.2789 17.3245 13.3271 17.3936 13.4038C17.4628 13.4805 17.5001 13.5801 17.5 13.6833Z" fill="white"/>
</svg>
