<svg width="20" height="20" viewBox="0 0 20 20" fill="none" xmlns="http://www.w3.org/2000/svg">
<path d="M2.5 5.83317C2.5 5.39114 2.67559 4.96722 2.98816 4.65466C3.30072 4.3421 3.72464 4.1665 4.16667 4.1665H15.8333C16.2754 4.1665 16.6993 4.3421 17.0118 4.65466C17.3244 4.96722 17.5 5.39114 17.5 5.83317V14.1665C17.5 14.6085 17.3244 15.0325 17.0118 15.345C16.6993 15.6576 16.2754 15.8332 15.8333 15.8332H4.16667C3.72464 15.8332 3.30072 15.6576 2.98816 15.345C2.67559 15.0325 2.5 14.6085 2.5 14.1665V5.83317Z" stroke="white" stroke-width="1.5" stroke-linecap="round" stroke-linejoin="round"/>
<path d="M2.5 5.83301L10 10.833L17.5 5.83301" stroke="white" stroke-width="1.5" stroke-linecap="round" stroke-linejoin="round"/>
</svg>
